<?xml version="1.0" encoding="utf-8"?>
<!-- Generator: Adobe Illustrator 23.0.2, SVG Export Plug-In . SVG Version: 6.00 Build 0)  -->
<svg version="1.2" baseProfile="tiny" id="Layer_1" xmlns="http://www.w3.org/2000/svg" xmlns:xlink="http://www.w3.org/1999/xlink"
	 x="0px" y="0px" viewBox="0 0 493.1 127.1" xml:space="preserve">
<title>Hello2</title>
<g>
	<path d="M156.9,1.6c1.5-0.6,4.1-2.1,5.4,0.2c-2.2,1.5-1.9,0.5-2.6,3.2c-0.2,0.7-0.4,2.6,0,3.3c0.8,1.7,2.7,1.6,3.3,3.5
		c-4.4-1.2-2.8,3.1-3.6,5.8c-0.9-4.1,2-13.8-3.4-15.7C156.3,1.8,156.6,1.7,156.9,1.6z M156.1,21.2c0.4-0.6,1.6,0.1,1.5,0.7
		C157.3,22,155.5,21.9,156.1,21.2z M158.9,19.6c1.3-0.5,3.8,0.7,3.8,2.2C160.7,21.8,158.1,22.6,158.9,19.6z M164.4,10.6
		c1-0.7,2.8-0.2,3.5-0.8c1.3-1,0.1-1.2,0.8-3.1c0.3-0.9,0.6-2.2,1-2.9c0,3.9-0.3,8.2,0.5,12c0,0.2,0.1,1.2,0.2,1.3
		c0.2,0.6,1.5,2.3,1.6,2.7c0.3,1.7,1.3,0.9-0.5,2c-1,0.6-5,0-6.2,0c0.9-0.5,2.8-1.5,3.4-2.7c0.3-0.6,0.4-5.4,0-5.9
		c-1.2-1.8-2.6-1.3-4.9-1.3C164.2,11.5,164.4,11.1,164.4,10.6z M166.3,1.8c1.2-1.2,5.1-1.5,6,0.7c-1.5-0.3-3-0.4-3.6,0.9
		C168.1,2.1,166.5,2.5,166.3,1.8z M172.6,1C173.3,1,172,1,172.6,1z"/>
	<path d="M181.5,7c0-1.6,5.7-0.7,6.4,0.2c-0.1-0.2-0.5,15.6,4.4,10.4c-0.1,0.4,0.1,3.8,0.2,4c0.9,2.2,1.1,1.9,3.8,1.9
		c-2.9,0.3-4.3,1.3-7.6,1.3c-0.1-1.6,4.7-1.9,2.1-4.3c0,0-3,0.7-3.7,0.8c-1.6,0.2-4.9,0.3-4.9-1.9c0-0.3,3.2-2,3.7-3.2
		c0.4-0.9,0.3-5,0-5.9c-0.9-3.3,0.5-0.5-2.1-2.1C182.6,7.4,181.4,9.1,181.5,7z M184.7,0.3c3.1-1.5,4.5,3.3,1.7,3.5
		C185,3.9,183.1,1.3,184.7,0.3z M190.3,5.5c1-1.7,1.8,1.9,1.5,1.6C191.4,6.7,189.4,7,190.3,5.5z M191.1,11.7c1,0.6,1.2,1.7,0.9,3
		C192,13.7,191.3,12.1,191.1,11.7z"/>
	<path d="M208.9,16.9c0-1,2.6-1.9,2.6-1.9c2.9,2,0.7,5.6,0,7.9c-0.2-1.1-0.7-0.5-1.3-1c-0.5-0.4,0-1.1-0.2-1.6
		C209.5,19,208.9,18.2,208.9,16.9z M209.7,22.6C209.8,22.6,209.6,23.2,209.7,22.6z"/>
	<path d="M251.4,20.1c6.4-4.2,6.4-15-0.4-18.9c1.1-1.2,6.6-0.9,8.1-0.4c5,1.6,0.8,1.2-1,2.8c-1.6,1.4-1.7,11-0.8,13.4
		c0.7,1.7,2.4,3,4.5,2.9c-2.8,3,0.9,4,1.1,6c-2,0.5-4,0.4-6,0.4c2.3-0.8,3.2-2.7,3.4-4.9C259.5,22.5,249.3,21.2,251.4,20.1z
		 M258,7.6c1.5-0.8,5.3-1,6.5,0.3c-4,0.9-3.6,1.2-3.6,5.3C260.5,10.3,260.3,9.1,258,7.6z"/>
	<path d="M295.8,16.1c0-4.1,5.2-2.3,7.5-4c0,2,5-0.3,5.3-1.2c-1.4,0.2-2.2-1.8-3.8-2.2c-3-0.8-5,4.7-6.9,2.3
		c-2.4-3.1,3.3-4.9,5.1-4.9c1.1,0,2.2,0.3,3.3,0.7c2.9,1,2.5,1.3,3.2,3.8c0.6,2.1-0.3,4.6,0.8,6.6c0.5,0.9,3.9,1.6,2.1,3.4
		c-0.7,0.7-3.3-0.2-4.2-0.1c-1.8,0.1-3.2,0.8-4.9,1.1C298.9,22.1,295.5,21,295.8,16.1z M299.1,18.1c1.4,1.4,8.6,0.3,8.4-2.3
		c-0.2-2.8-3.4-0.9-4.2-0.8C300.9,15.1,297.9,14.6,299.1,18.1z"/>
	<path d="M318.6,7.2c1.8-0.6,4.4,0,6.3,0c2.3,0,6.4-1.3,8.2-0.7c2.8,1.1,2.4,3.8,2.5,6.3c0.1,1.5,0.2,3,0.5,4.4
		c0.2,0.8,1.5,1.6,1.3,2.7c-0.3,1.7-0.5,0.8-1.8,1.2c-5.3,1.9-2.5-1.9-2-3.7c0.5-1.8,1.1-8.9-1.5-9.2c-3.5-0.3-3.2,5.2-3,7
		c0.3,2.3,2.1,8-2.8,5.6c-2.7-1.3-0.2-0.3,0.2-2.1c0.3-1.1,0.8-2.7,0.8-4.3c-0.1-2.7,0-7.6-3.4-5.6c-2.7,1.5-2.1,4.7-2.2,7.2
		C319.2,16.3,322.2,7.8,318.6,7.2z M319,18.7c0.8-0.9,2.1-1.9,3.3-1C326.6,20.6,318.8,23.4,319,18.7z"/>
	<path d="M0.5,77c1.6-1.6,2.4,1.1,4.1-0.6c1.2-1.2,1-3.5,1-5.1c3.2,0.4,1.1,7.1,4.8,6c1.8-0.5,1.4-2.5,1.5-3.2
		c0.4-1.8,0.8-5.1-0.8-6.2c-3.3-2.2-3.3,2.6-4.2,2.6c-2.3,0.1-2.2-9.6-0.8-10c2.4-0.7,0.6,5.8,4.7,3.6c1.8-1,1.2-3.4,3.4-4
		c-1.3,4.9,3.5,1.1,4.8,0.9c0.2,0.8,0.2,2.3,0,3.1c-3.1,0.3-3.7-2-4.5,1.9c-0.3,1.3,0.7,3.6,0.5,4.3c-0.7,2.4-2.3,1.9-1.5,4.7
		c0.3,1-1.2,1.1,1.2,1.4c0.4,0,3.6-1.1,4.1-1.6c0.5-0.5,0.8-2.3,1.3-3c0.7-1,1-1.4,2.1-2c0,2.8-0.8,4,1.5,3.7c2.6-0.4,2-2.5,3.8-3
		c-0.2,4.4-3,3.3-5.2,4.9c-1.4,1.1-1.8,4.3-4.5,4.6c-2.2,0.2-4.9-1.2-7.1-1C10.2,79.1-2.4,80.4,0.5,77z M2,54
		C1.7,54.4,1.6,54.4,2,54z M3,53c2-1.6,10.2-1.2,12.7-0.9c1,0.1,2.3,1.1,3.3,1.4c1,0.3,0.7-1.8,1.9-0.8c1.4,1.2,0.1,7.4-2,7.4
		c-0.1-2.6,1.5-2.2-1.1-4.5c-2.1-1.8-3.3-1-5.3-1.1c-0.6,0-0.7-1.2-1.6-1.1c-0.8,0.1-0.7,1.1-1.4,1.3c-0.2,0.1-2.3-0.2-2.5,0
		c-0.2,0.2-0.4,1.6-0.5,1.7c-0.6,0.7,0.7,1.4,0.6,2c-3.1,0.8-1.1-1.6-1.9-3.2C5,54.5,3.4,54,3,53z M11.2,50.3
		C11.4,50.3,11.2,51.1,11.2,50.3z M20.5,68.5c0.3,0.3,0.7-0.3,0.5,0.5C20.2,69.2,20.8,68.7,20.5,68.5z"/>
	<path d="M30.8,60c2-0.9,4.4-0.1,6.5,0c4,0.1,8.4-1.1,11.9-0.5c2.9,0.5,3.8,1.2,4.2,5.1c0.3,2.6-0.4,6,0.5,8.5
		c0.4,1.2,2.3,2,2.1,3.7c-0.4,3.2-7.6,2.5-7.4-0.1c0.1-1.2,1.9-2.1,2.3-3.1c0.3-0.8,0-2.4,0-3.3c0-1.5,0.9-6.7-0.1-7.9
		c-3.8-4.6-6.2,5.7-6.3,7.9c-0.1,1.8,1.2,3.4,1.4,5.2c0.3,2.6,1.2,2.4-1.8,3.2c-0.6,0.2-2,0-2.6-0.3c-1.7-0.7-2.6,0.1-1.7-2.3
		c0.2-0.5,1.9-0.2,2.2-0.7c0.9-1.8-0.1-0.9,0.2-2.1c0.1-0.5,0.3-2.7,0.3-3.4c-0.1-3.4-0.2-10.7-4.7-7.5c-3.3,2.4-2.6,6-2.6,9.6
		C31.7,72.1,35.7,61,30.8,60z M31.2,75.4c0.9-0.7,2.3-2.4,3.8-1.9c1.4,0.5,3,3.9,1.6,5.1C35.3,79.8,30.7,78.2,31.2,75.4z"/>
	<path d="M62.1,60c1.9-0.9,4.3-0.1,6.3,0c4,0.1,8.1-0.7,11.7-0.4c3.1,0.3,4.1,0.7,4.5,4.9c0.2,2.4-0.2,5.3,0.4,7.6
		c0.4,1.3,2.4,3,2.1,4.5c-0.5,2.9-7,2.6-7.5,0.5c-0.3-1.3,2.1-2.7,2.4-3.4c0.3-0.9,0-2.7,0-3.6c0-1.3,0.8-6.7,0-7.7
		c-3.6-4.6-6.4,4.7-6.4,7.2c-0.1,3.8,4.5,10-2.5,8.6c-2.8-0.6-2.9-0.1-1.7-2.6c0.3-0.6,1.5-0.2,1.9-1.1c0.3-0.8-0.2-0.9,0-1.5
		c0.1-0.4,0.3-2.7,0.3-3.4c-0.1-3.5-0.2-10.7-4.7-7.5c-3.3,2.4-2.6,6-2.6,9.6C62.9,72.1,66.7,61,62.1,60z M62.5,75.4
		c0.9-0.7,2.3-2.4,3.8-1.9c1.4,0.5,3,3.9,1.6,5.1C66.5,79.8,61.9,78.1,62.5,75.4z"/>
	<path d="M94,71.9c0-5.5,7-2.9,10-5.4c0,2,4.2,0.5,4.9,0.1c2.1-1,1.8-0.3,1.7-1.7c0.2,1.2-3-3-2-2.4c-0.7-0.4-3.8-1.4-4.8-1.2
		c-2.4,0.6-3,5.8-6,4.4c-2.6-1.2-0.7-5.2,1.1-6.3c2.6-1.6,4.8-0.5,7.2-0.1c1.8,0.3,3.4,0,4.9,1.4c2,1.8,1.1,3.4,1.3,6.3
		c0.1,1.1,0,4.6,1.1,6.1c0.9,1.4,4.8,1.6,2.8,4.2c-0.7,0.9-2.1,0.4-3.4,0.4c-3.4-0.2-5.5,0.7-8.7,1.1C98.2,79.9,93.8,78.4,94,71.9z
		 M98.4,74.5c1.8,1.9,11.7,0.4,11.3-3.1c-0.4-3.5-4.5-1.4-5.8-1.1C102.9,70.5,94.8,70.5,98.4,74.5z"/>
	<path d="M124,61.3C124.7,61.3,123.4,61.3,124,61.3z M124.2,77.6c4.7-1.6,4.3-4.9,4.4-8.6c0-0.4,0-2-0.1-2.4
		c-0.2-2.4-2.2-5.2-2.1-7.6c3.2,0,4.3,1.6,7.4,0.8c2.7-0.7,4.4-1.8,6.9-0.2c3.9,2.5,2.8,8.2,3.1,12.1c0.1,1.5-0.3,2.7,0.6,3.9
		c-0.2-0.3,5.2,1.7,2.4,2.5c-0.1-0.4-0.3-0.7-0.5-1c-0.3-0.3-2.1,2.2,0,2C143,79,125,80,124.2,77.6z M130.8,71.6
		c0.9,4.4,3.3,6.3,7.2,4.5c3.9-1.8,2.4-3.8,2.3-7.6c-0.1-3.9-0.2-8.1-5.8-5.3C131.4,64.7,130.8,68.2,130.8,71.6z"/>
	<path d="M155.6,60.5c0.2,0.3,0.7-0.2,0.5,0.5C155.3,61.2,155.8,60.8,155.6,60.5z M159.1,66.3c0-7.5,3.3-4.2,3.2,0.2
		c-0.1,2.3-2.1,5.5-0.2,7.9c2.9,3.6,8.1-1.4,9.5-3.4c0.7-1-0.2-2.2,1.1-2.6c4.1-1.1,1.7,3.6,3,5.2c0.8,1,2.8,0.6,3.6,1.3
		c2.2,2,1,4.6-2.4,4.7c-1.6,0-2.6-1.8-4.2-2c-2.2-0.3-1.9,0.5-3.6,0.6c-1.5,0.1-4.2,0.5-5.7,0c-2-0.7-3.7-2.5-3.9-4.6
		c-0.2-1.9,1.2-2.6,1.1-3.7C160.7,68.8,159,68.1,159.1,66.3z M159.6,59c0.3,0.3,0.7-0.3,0.5,0.5C159.3,59.7,159.8,59.3,159.6,59z
		 M167.6,59.1c0.7-0.4,5-0.7,6-0.1c1.9,1.2,3.1,8.9-1.6,7.5c-0.1-2,1.4-2.9-0.6-4.8C170.1,60.4,167.9,61.5,167.6,59.1z"/>
	<path d="M188.7,63.4c0.3-1.3,0.6-2.6,0.8-3.9c0,1.4-0.4,4.7,2.1,4.4c1.5-0.2,2.4-4.2,4.2-5c0.8-0.3,4.8,0.1,6,0.1
		c3.4,0,4.6,0.4,6.4,3.6c5.7,9.8-6.8,4.9-10.8,6.7c-1.7,0.7-3,2.7-0.9,3.8c1.2,0.6,3.5-0.8,4.9-0.5c-1,1-2.1,1.7-3.5,2
		c2.7,0.6,3.9,1.4,6.4,0.2c1-0.5,1.4-2,2.6-2.1c3.1-0.3,2.1,2.6,0.6,4.2C199.1,85.9,186.5,71.7,188.7,63.4z M189.8,69.8
		c0.2,0.7,0.7,1.2,1.5,1.3c-1.4-2.5,1-3.5,1.1-6.1C189.3,64.7,189.6,67.7,189.8,69.8z M199.7,64c-0.2-1.2,1.7-1.5,2.5-1.5
		c-0.2-3.2-7.3-1-7.4,1.5C196.4,64,198.1,64,199.7,64z M195.1,65.4c2.6,2.9,13.9,1.2,9.1-3.4C202.4,66.1,195.5,63.8,195.1,65.4z
		 M198.3,56.4c-0.1,0,1.5-0.1,1.4,0.1C195.4,59.8,198.1,56.4,198.3,56.4z M201.7,71.3c0.3-0.4,0.5-0.9,1-1.3
		C203.3,71.3,201.7,71.3,201.7,71.3z M203.2,62c0.5-0.3,0.5-0.7,0-1C202.7,61.4,202.7,61.7,203.2,62z"/>
	<path d="M221.6,50.3c2.5,0.6,4.2-0.8,6.6-0.2c3.2,0.8,3.1,5.1,3.1,8.1c0,1.1,0.3,2.6,0,3.6c-0.3,1.2-2.1,2.5-2,3.7
		c0,0.7,1.6,1.4,1.9,2.5c0.7,2.3-1.7,5.3,0.2,7.5c1.6,1.8-0.2,0.3,1.9,0.5c1.8,0.1,2.5-1.4,4.9-0.6c-0.6,1.7-1.9,3.4-3.8,3.5
		c0.2-3.5-0.9-1.1-1.8-1c0.1,0-2.3,0.4-3,0.5c-2.3,0.3-4.7,0.6-7,0.5c0.8-0.4,1-1.7,1-2.5c5.1,1.4,3.6-2.3,4-6.2
		c0.4-4.2,0.4-8.4,0.5-12.6c0-1.5,0.9-3.2-1-4.5C226.1,52.3,218.8,53.3,221.6,50.3z M235.3,42.5c0,0.3,0,0.7,0,1
		c-0.6-0.9-1.7-0.6-2.5-1C233.6,42.5,234.5,42.5,235.3,42.5z M235.2,67.6c-0.2-2.7-0.2-6.7,1.1-9.1c0.3,3.1,0.6,6.3,0.6,9.5
		C235.7,68.3,235.5,67.9,235.2,67.6z M236,44.8C236.3,44.8,236,45.6,236,44.8z M235.8,49.5c1.4-0.6,0.6,3,0,4.1
		C235.8,52.2,235.8,50.9,235.8,49.5z M242.3,67.5C242.6,67.6,242.2,68.5,242.3,67.5z"/>
	<path d="M281.8,77.6c0.3-0.7,0.9-1.7,0-2.4c6.2,0,3.8-3.4,5-8.6c0.3-1.3,0.6-3.2,1.9-3.8c-1,0.4,2.7,1,2.5,1c0.8,0.1,1.9,0.1,2.7,0
		c0.7-0.1,0.5-1.2,0.9-1.2c1.7-0.3,4.3,0.7,5.9,0c1.3-0.6-0.6-1.8,1.3-2.1c0.7,10.3-17.4,1.7-13.2,12.2c1.1,2.7,4.9,2.7,3.9,6.7
		c-0.7,0-1.8-1-2.3-0.9c-1,0.2-3.2,0.7-4.1,0.8C285.4,79.3,281.4,79,281.8,77.6z M281.8,53c0.2,0.3,0.7-0.2,0.5,0.5
		C281.5,53.7,282,53.3,281.8,53z M284.8,52.5c1.4,0.6,6.4,1.3,7.6-1c2.2,1.2,5.2,0,7.5,1.4c3.3,2,1.8,3,2,5.7
		c-2.5-2.9-3.6-4.3-8.7-4.1c-1.3,0.1-3.1,1-3.8,1c-2,0.2-5.3,0-5.6-3.2C284,52.5,284.4,52.5,284.8,52.5z M286.9,58.9
		c0.7-2.8,2.1,1.5,2.1,2.5C287.5,61.4,286.7,60.2,286.9,58.9z M287.3,51.5C287.5,51.6,287.2,52.4,287.3,51.5z M302.8,59.1
		c0.1,0.2,0.8,0.1,0.5,1.1c-0.2,0-0.3,0-0.5,0C302.8,59.8,302.8,59.4,302.8,59.1z"/>
	<path d="M316.2,59.8c0.1-3.3,3.2-0.5,4.7-0.3c0.8,0.1,1.2-1.3,2.5-0.8c1.9,0.8,1.2,2.5,1.4,4.2c0.2,1.8,0.2,17,5.9,11.1
		c-0.2,0.8,0.2,5,0.3,5.5c1,3.1,1.6,2.3,5.1,2.3c-1.7,0.2-2.8,1.5-3.8,1.7c-2,0.4-4.4,0-6.4,0c-0.1-1.8,6.2-3,2.8-5.7
		c0.2,0.2-4.3,1-4.9,1.1c-1.6,0.1-7.4,0.3-6.6-2.7c0.4-1.5,4.3-1.3,5.1-4.3c0.5-1.8,0.3-5.9,0-7.7c-0.7-3.6,0.9-1.9-2.8-2.8
		C317.5,60.9,316.3,62.2,316.2,59.8z M320.5,50.9c4.1-2,6,4.4,2.2,4.6C320.8,55.6,318.4,52.2,320.5,50.9z M327.9,57.7
		c0.9-1.4,3.5,1.9,1.6,2.2C328.2,60,327.8,58.9,327.9,57.7z M329,66c1.7-0.2,1.3,3.1,1.2,4C330.2,68.7,329.3,66.6,329,66z"/>
	<path d="M347.3,59.6c0.7-0.6,2.6-0.8,3.2-1.6c0.5-0.7-0.2-2.4,0.4-3.2c1.3-2,2.2-3.5,3.4-1.2c1.1,2.2-1.3,4.2,1.3,5.4
		c0.6,0.3,1-0.6,1.7-0.5c2.1,0.3,4.8,0.2,2.7,2.7c-1.4,1.6-3.2,0.5-4.6,1c-1.3,0.4-1-0.6-1.9,0.6c0.1-0.1,0.5,4.9,0.5,5.1
		c0,2.9,0.4,9.9,5.1,7.3c1.3-0.7,1.5-4,2.4-4.4c2.5-1,1.9,4.2,1.1,5.6c-0.5,1-3.9,3.7-4.9,3.8c-1.5,0.1-4.9-3.3-4.8-1.3
		c-2.3-3.4-1.9-7.9-1.3-11.8c0.2-1.5,0.8-3.4-0.1-4.5C351,62.1,345.3,61.7,347.3,59.6z M353,57.5C352.1,56.1,351.5,56.6,353,57.5z
		 M354.4,76.5C353.6,75.2,353.1,75.7,354.4,76.5z"/>
	<path d="M377.1,78.5c1.3,1.5,4.8,3.9,7,4C381,82.6,376.9,82.4,377.1,78.5z M378.1,65.5c1.1-0.7,1.3-2,3-1.5
		c-4.4,1.8,2.6,11.9,6.7,12c1.7,0.1,7.6-3,7.8-5c4,7.1-7,8.4-10.9,7.6C378.4,77.2,378,71.1,378.1,65.5z M380.7,61.2
		c1-1.3,5.2-3.1,6.9-3.2c2.7-0.2,7.5,0.7,7.5,4.3c0,1.6-1.5,4.2-3.3,2.9c-2.1-1.5,1.5-1.4,0.1-3c-0.6-0.7-4-1.3-5.2-1.2
		c-2.1,0.1-3.8,1.2-6.1,1.2C380.8,61.3,380.9,61,380.7,61.2z M384.1,64.4c1.5,0.1,3.4,0.1,4,1.3C386.5,65.7,384.6,65.7,384.1,64.4z
		 M386.8,81.2c0.9-0.8,2.7-0.9,3.8-1.7c0,1.8-2.3,2.5-4,2.6C386.9,81.3,387,81,386.8,81.2z M389.4,66.8c0-0.3,0.7,1.2,0.2,1.8
		C389.5,68.6,389.4,66.7,389.4,66.8z"/>
	<path d="M407.3,51.1c1.9-0.3,5.5-0.5,4.6,2.3c-2.1,0-3.9-1.7-6-1.8C406.4,51.4,406.9,51.3,407.3,51.1z M408.5,77.8
		c2.2-2.8,2-5.1,2-8.9c2.2,0.1,0.9,3.3,1.5,4.5c1.1,2.1,1.4,2,4,2.7c-1.4,0.5-0.6,2.4-2.3,3c-0.7,0.3-0.9-1.1-1.5-1
		c-1.5,0.3-3.7,2.1-4.5,0C407.9,77.9,408.2,77.8,408.5,77.8z M411.1,62.1c2.4,0,3.2-0.6,4.9-1.5c1.1-0.5,2.5-2.1,4.2-2
		c9.4,0.3,4,10.6,6.5,15.4c0.7,1.4,3.5,2,2.8,3.6c-0.6,1.3-4.6,1-5.4,0.9c-5.2-0.7-1.5-1.7-0.3-4.7c0.8-2.1,0.8-10.1-0.7-11.9
		c-1.9-2.2-4.3-0.6-6.5,0.7c-1.4,0.8-1.7,0.9-2.8,2c-0.2,0.2-2.4,4.4-3,1.9C412.8,65.5,410.9,63,411.1,62.1z M410.7,55.3
		C413.2,55.6,410.9,58.7,410.7,55.3z M410.7,59.6c0.4,0,0.8,0,1.2,0c0,0.2,0,0.3,0,0.5C411,60.3,410.9,59.6,410.7,59.6z"/>
	<path d="M438.2,63.4c0.3-1.3,0.6-2.6,0.8-3.9c0,1.6-0.3,4.9,2.3,4.4c0.9-0.2,2.5-4.3,3.9-4.9c0.8-0.4,4.7,0.1,6,0.1
		c3.5,0,5.3,0.8,6.8,4.4c4.1,9.6-7.5,3.7-11.5,5.9c-1.9,1-2.4,3-0.3,3.8c1.3,0.5,3.2-0.8,4.6-0.5c-1,1-2.1,1.7-3.5,2
		c2.9,0.6,3.6,1.3,6.2,0.3c0.9-0.3,1.6-1.9,2.1-2c3-0.6,3.1,1.4,1.6,3.6C449.9,86.9,435.9,71.9,438.2,63.4z M439.3,69.8
		c0.2,0.7,0.7,1.2,1.5,1.3c-1.4-2.5,1-3.5,1.1-6.1C438.8,64.7,439.1,67.7,439.3,69.8z M449.2,64c-0.2-1.2,1.7-1.5,2.5-1.5
		c-0.7-3-7.3-1.1-7.4,1.5C446,64,447.6,64,449.2,64z M444.6,65.4c2.8,2.9,13.8,1.3,9.1-3.4C452,65.8,444.7,64.4,444.6,65.4z
		 M447.8,56.4c-0.1,0,1.5-0.1,1.4,0.1C448.6,57.1,447.7,56.4,447.8,56.4z M451.2,71.3c0.3-0.4,0.5-0.9,1-1.3
		C452.7,71.3,451.3,71.3,451.2,71.3z M452.7,62c0.5-0.3,0.5-0.7,0-1C451.6,61,452.7,61.9,452.7,62z"/>
	<path d="M470,77.9c0.8-2.6,3.9-1.6,4.6-2.3c1.8-2-0.1-1.6-0.3-3c-0.3-2.6,0.6-5.5,0-8.1c-0.8-3.4-1.6-2.7-4.4-2.9
		c-0.4-5.1,14.5,2,10.5-5.1c1,0.5,2.2,0.9,3.4,1c-0.2,0.2-0.4,0.3-0.5,0.5c2.6,0.1,6.3,2.3,5.2,4.9c-2.8,6.9-6.6-7.1-6.6,4.1
		c-0.3,0-0.5,0-0.8,0c0-1.7,0-3.3,0-5c-2.6,0.1-4.1,4.7-4.2,6.8c-0.1,1.2,0.3,3.1,0.8,4.2c0.9,1.7,3.8,2.2,4.2,3.6
		c-1.7-0.1-2.1,1.3-3.2,1.7c-2.3,0.8-6.1,1-8.7,0.9C469.9,78.7,470,78.3,470,77.9z M481.8,72.4c0.4-2.7,4,0.1,0,1.4
		c-0.8,0.3-2.3-1-2.8-1.4C479.9,72.3,480.9,72.2,481.8,72.4z M481,78.4C481.2,78.4,481,79.2,481,78.4z M490.1,55.1
		c6.6,2.1-1,5.3-0.9-0.2C489.8,54.7,490.1,54.8,490.1,55.1z"/>
	<path d="M14.9,116.9c0-4.1,5.2-2.3,7.5-4c0,2,5-0.4,5.3-1.1c-1.5,0.2-2-1.7-3.3-2.2c-3.1-1.1-5.2,4.2-6.9,2.8
		c-3.2-2.6,2.5-5.2,4.5-5.3c2.3-0.1,5.9,0.8,6.7,3.1c1,2.6-0.5,5.4,0.7,7.7c0.5,0.9,4.1,2.2,2,3.8c-0.9,0.7-4.3-0.5-5-0.4
		c-1.3,0.1-2.3,1-3.6,1.2C18.2,122.9,14.7,122,14.9,116.9z M18.2,118.9c1.4,1.4,8.6,0.3,8.4-2.3c-0.2-2.8-3.4-0.9-4.2-0.8
		C20,115.9,17,115.3,18.2,118.9z"/>
	<path d="M37.4,108.9C37.9,108.9,36.9,108.9,37.4,108.9z M37.6,121.1c3.7-1.2,3.2-3.8,3.1-6.6c0-2.5-1.6-5-1.5-7.4
		c2.3,0,3.3,1,5.6,0.6c1.7-0.3,3-1.3,4.7-0.5c3.2,1.4,2.4,6.2,2.7,8.8c0.2,1.8,0.3,2.4,0.9,3.7c0-0.1,3.2,1.1,1.3,1.7
		c-0.1-0.3-0.2-0.5-0.4-0.8c-0.8,0-1.1,1.6,0,1.5C51.3,121.8,37.9,123.2,37.6,121.1z M42.5,116.7c0,3.5,3.2,4.9,5.8,3.3
		c2.4-1.5,1.6-3.1,1.4-5.7c-0.2-2.9,0-5.8-4.2-4C43.1,111.2,42.3,114.1,42.5,116.7z"/>
	<path d="M62.4,113.2c0.5-2.5,2-5.2,4.4-6c1.3-0.4,3.9,0.7,5-0.1c1.8-1.4,0.2-3.3-0.4-5.1c3.6-0.8,2.5,5.6,2.5,7.8
		c0,1.8-0.1,3.7,0.2,5.5c0.2,1.3-0.3,2.6,0.8,3.6c0.4,0.4,1.9,0.3,2.1,0.7c0.6,0.8,2.4,1.2,0.3,2.7c-0.1-1-3.9-0.9-6.1-0.9
		c-1.6,0.1-3.3,1.5-5.3,0.5c-0.9-0.5-1.9-4-3.5-2.3C62.4,117.5,62.4,115.3,62.4,113.2z M64.2,116.3c1.6,1.5,1.3,3.4,4.3,2.9
		c3.8-0.6,4.9-6.2,2.1-8.7C66.4,106.8,62.8,111.5,64.2,116.3z M69.5,100.9c0.8,0.3,1.2,0,1.5,0.7C69.5,102.1,70,101.1,69.5,100.9z"
		/>
	<path d="M110.8,120.9c6.4-4.2,6.4-15-0.4-18.9c1.1-1.2,6.6-0.8,8.1-0.4c5,1.6,0.8,1.2-1,2.8c-1.6,1.4-1.7,11-0.8,13.4
		c0.7,1.7,2.4,3,4.5,2.9c-2.8,3,0.9,4,1.1,6c-1.9,0.5-4,0.4-6,0.4c2.2-0.8,3.2-2.9,3.3-5C118.8,123.4,108.7,122.1,110.8,120.9z
		 M117.4,108.4c0-1.3,6-0.3,6.5,0.3c-4,0.9-3.6,1.2-3.6,5.3C119.9,111.1,119.7,109.9,117.4,108.4z"/>
	<path d="M155.8,101.4c1-0.7,3.9,0.1,3.8,1.5C158.9,102.8,154.9,102.2,155.8,101.4z M159.5,115.2c0.3-2-0.4-4.4-0.1-6.2
		c0.1-0.6-0.2-1.8,0.2-2.3c0.9-1.1,1.2,0.7,1,0.8c1.5-0.3,6.5-1,8.5,0.9c2,1.9,1.9,6.3,1.4,8.7c-0.2,0.8-0.7,3.1-1.4,3.8
		c-1.5,1.3-4.3,0.3-5,2c-1.8-2.2-3.6-0.4-4.7-2.5C158.8,119.2,159.4,116.3,159.5,115.2z M160.2,103.2c0.4,0.6,0.4,1.4,0.4,2
		C158.6,105.2,160.5,102.8,160.2,103.2z M159.9,101.5C160,101.5,159.8,102,159.9,101.5z M160.4,116.1c0.2,3.3,6.9,5.5,9,2
		c1.5-2.4-0.2-7-2-8.1C162.8,107.1,161,112.4,160.4,116.1z"/>
	<path d="M178.1,108.3C178.5,108.7,178.6,108.8,178.1,108.3z M180.8,112.7c0-4.7,2.3-4.1,2.6-0.1c0.1,1.1-0.8,2.4-0.7,3.7
		c0.3,2.9,1.9,4.1,5,2.6c1.6-0.8,2.1-3.8,2.8-4.1c3.6-1.6,1.5,1.7,2.5,3.4c0.3,0.5,1.7,0.5,2,0.9c0.6,0.7,1.6,0,1.9,1.3
		c0.3,1.6-1.8,2.4-2.9,2.4c-1.6,0-3.3-1.6-5-1.7c-1.2-0.1-3.5,1.3-5.2,0.6c-2.1-0.8-2.3-2.5-2.6-4.4c-0.2-1.3,1-0.9,0.8-2.1
		C181.9,114.6,180.8,113.8,180.8,112.7z M181.1,107.2C181.6,107.7,181.5,107.6,181.1,107.2z M187.1,107.2c1-0.3,4.3-0.4,5,0.3
		c1.4,1.4,1.4,6.2-1.7,5.3c-0.1-1.6,0.7-1.9-0.5-3.6C189.1,108.1,187.5,109,187.1,107.2z"/>
	<path d="M205,107.8c0-1.6,5.7-0.7,6.4,0.2c-0.1-0.2-0.5,15.6,4.4,10.4c-0.1,0.4,0.1,3.8,0.2,4c1,2.2,1.1,1.9,3.9,1.9
		c-2.8,0.3-4.3,1.3-7.6,1.3c-0.1-1.6,4.3-1.4,2.5-3.9c-0.8-1.1-1.7,0.3-2.8,0.4c-1.2,0.1-6.4,0.8-6.2-1.6c0.1-1.4,2.7-1.1,3.6-2.7
		c0.7-1.2,0.4-4.8,0.2-5.9c-0.8-4.1,0.6-0.9-2.1-2.7C206.1,108.1,205.1,109.9,205,107.8z M208.2,101.1c3.4-1.7,4.4,4,1.3,3.4
		C207.8,104.1,207.3,102.4,208.2,101.1z M213.8,106.2C215.1,104,214.8,111.3,213.8,106.2z M214.6,112.4c1.2-0.1,1.1,2.3,0.9,3
		C215.5,114.5,214.8,112.9,214.6,112.4z"/>
	<path d="M227.6,100.8c4.6,1.6,6.9-2,7.2,5.2c0.1,2.7-1.4,4-1.5,6.1c0,0.3,1.3,2.6,1.4,3.7c1.1,7.7,0.7,1.8,5.3,3.7
		c-0.5,1.4-1.4,2.4-2.8,2.6c-0.2-2.1-0.3-0.9-1.3-1c1.1,0.1-2.3,0.8-2,0.7c-1.3,0.4-4,0.4-5.5,0.3c0.6-0.3,0.8-1.3,0.7-1.9
		c3.6,1.8,2.9-1.9,3-4.3c0.2-3.3,0.8-6.9,0.5-10.1C232.4,102.4,229.3,102.1,227.6,100.8z M237.9,94.9c-0.3,0.2-0.5,0.7-1.9,0
		C236.6,94.9,237.3,94.8,237.9,94.9z M237.8,113.7c0-2.1-0.3-4.9,0.7-6.8c0.3,2.3,0.5,4.8,0.5,7.1
		C238.2,114.2,238.1,113.9,237.8,113.7z M238.4,96.6C238.6,96.6,238.4,97.2,238.4,96.6z M238.3,100.1c0.8,0,0.6,2,0,3
		C238.3,102.2,238.1,101.1,238.3,100.1z M243.2,113.6C243.3,113.7,243.1,114.3,243.2,113.6z"/>
	<path d="M249.8,113.2c0.7-2.5,1.9-5.2,4.4-6c4.6-1.6,6.9,1.2,4.6-5.2c3.6-0.8,2.5,5.6,2.5,7.8c0,1.8-0.1,3.7,0.1,5.5
		c0.2,1.3-0.2,2.6,0.8,3.6c0.4,0.4,1.9,0.3,2.1,0.7c0.6,0.8,2.4,1.3,0.3,2.7c-0.1-1-4-0.9-6.2-0.9c-1.6,0.1-3.3,1.5-5.3,0.5
		c-0.9-0.5-1.9-4-3.5-2.3C249.7,117.5,249.7,115.3,249.8,113.2z M251.6,116.3c1.6,1.5,1.4,3.7,4.6,2.9c3.8-0.9,4.6-6.4,1.7-8.8
		C253.6,106.7,250.2,111.5,251.6,116.3z M256.9,100.9c0.8,0.3,1.2,0,1.5,0.7C256.9,102.1,257.3,101.1,256.9,100.9z"/>
	<path d="M296.5,107.6c0.1-0.1,2.6-0.1,3.2-0.1C299.1,112,295.8,108.2,296.5,107.6z M298.1,113.8c-0.1-1.8,0.9-2.2,1.2-3.6
		c0,2-0.2,6,1.4,6.7c-0.2-1.2,1.1-2.4,1.3-3.8c0.2-1.4-0.8-4.8,0.3-5.8c0.5-0.5,3.4-0.4,3.9,0c1.9,1.4,0,3.1,0.2,5
		c0.2,1.9,0.6,3.5,2.3,2.2c2.6-2.1-1-5.4-0.4-6.5c0.6-1.1,2.7-0.4,4.4,0.3c-2.3,1.8-2.6,13.9-5.8,13.7c-0.1-1.8-0.9-3.6-1.5-5.3
		c-1.7-5.1-1.4-1.6-3,2.4C299.6,126,299.1,116.4,298.1,113.8z"/>
	<path d="M319.9,110.5c0.3-1,0.4-1.9,0.6-2.9c-0.4,1.3-0.1,3.3,1.5,3.3c0.8,0,2.1-3.2,3.2-3.7c0.6-0.2,4.3,0,5.1,0.1
		c2.3,0.3,3.4,0.7,4.5,3.3c2.9,6.8-5,3-8.1,4.4c-1,0.5-2.9,1.6-1.2,2.8c0.8,0.6,2.9-0.6,3.9-0.4c-0.7,0.8-1.6,1.3-2.6,1.5
		c2.4,0.5,2.5,0.8,4.6,0.2c0.6-0.2,1.4-1.5,1.6-1.5c2.8-0.1,2.4,1.9,0.2,3.6C326.4,126.5,318.3,116.6,319.9,110.5z M320.7,115.3
		c0.1,0.6,0.5,0.9,1.1,0.9c-0.8-2.2,0.8-2.3,0.8-4.6C320.6,111.5,320.3,113.7,320.7,115.3z M328.1,111c-0.1-0.9,1.3-1.1,1.9-1.1
		c-0.9-1.7-5.5-1.3-5.5,1.1C325.7,111,326.9,111,328.1,111z M324.7,112c2,2.2,6.1,0.6,8-0.3c-0.1-0.8-0.5-1.6-1.1-2.2
		C330.7,112.2,325,112.4,324.7,112z M327.1,105.2c0,0,1.1,0,1,0.1C327.8,105.9,326.9,105.3,327.1,105.2z M329.6,116.4
		c0.2-0.2,0.5-0.7,0.8-1C330.5,116.4,329.6,116.4,329.6,116.4z M330.8,109.5c0.4-0.2,0.4-0.5,0-0.8
		C329.9,108.7,330.8,109.4,330.8,109.5z"/>
	<path d="M343.1,101.4c1-0.7,3.9,0.1,3.7,1.5C346.3,102.8,342.2,102.1,343.1,101.4z M346.8,115.2c0.3-2-0.3-4.4,0-6.2
		c0.1-0.6-0.3-1.7,0.2-2.3c0.9-1.1,1.2,0.7,1,0.8c1.5-0.3,6.5-1,8.5,0.9c2,1.9,1.9,6.3,1.4,8.7c-0.2,0.8-0.6,3.1-1.4,3.8
		c-1.5,1.3-4.3,0.3-5,2c-1.8-2.2-3.6-0.4-4.7-2.5C346.1,119.2,346.7,116.3,346.8,115.2z M347.5,103.2c0.4,0.6,0.3,1.3,0.3,2
		C345.9,105.2,347.8,102.9,347.5,103.2z M347.2,101.5C347.4,101.5,347.2,102,347.2,101.5z M347.8,116.1c0,3.7,6.9,5.2,9,1.7
		c1.4-2.4-0.2-6.6-2-7.8C350.2,107.2,348.1,112.3,347.8,116.1z"/>
	<path d="M368.5,111.8c1.7-3,4.4,4.3,8.6,1.8c-0.3,1.4,1.1,2.3,2.2,1.2c-0.4,0.6,2.3,2.8,0,3.4c-0.3,0.1-3.1-1.8-4-2.2
		C372.5,115,369.1,115.8,368.5,111.8z M369.2,117.5c2.3,0.1,3.5,2.3,5.8,2.9c0.1,0,1.8-0.1,2-0.1c0.9-0.1,1.8,0,2.7,0
		c-1.4,0.1,1.3-2.6,1-1.8C380.7,124.3,367.5,124.6,369.2,117.5z M370.4,108.3c0.8-2.6,4.2-0.6,4.1-1.9c1.1,1.6,3.3,1.9,4.9,1.2
		c0,2.1,2,4.8-1.5,4.1c-0.5-0.1-2-2.2-2.6-2.4c-1.2-0.5-3.7,0-5,0C370.8,108.6,370.8,108.3,370.4,108.3z"/>
	<path d="M392.2,107.8c0-1.6,5.7-0.7,6.4,0.2c-0.1-0.1-0.5,15.6,4.4,10.4c-0.1,0.3,0.1,3.8,0.2,4c1,2.2,1.2,1.9,3.9,1.9
		c-2.8,0.3-4.3,1.3-7.6,1.3c-0.1-1.7,4.2-1.4,2.5-3.9c-0.8-1.1-1.7,0.3-2.8,0.4c-1.1,0.1-6.5,0.8-6.2-1.6c0.1-1.4,2.7-1.1,3.6-2.7
		c0.7-1.2,0.4-4.8,0.2-5.9c-0.8-4.1,0.6-0.9-2.1-2.7C393.3,108.1,392.3,109.9,392.2,107.8z M395.4,101.1c3.4-1.7,4.4,4,1.3,3.4
		C395,104.1,394.5,102.4,395.4,101.1z M401,106.2C402.4,104,402,111.3,401,106.2z M401.8,112.4c1.2-0.1,1.1,2.3,0.9,3
		C402.7,114.5,402,112.9,401.8,112.4z"/>
	<path d="M415.5,107.6c0.5-0.4,1.2-0.4,1.6-0.8c1-0.9,0.2-1.4,0.9-2.3c0.9-1.2,0.3-2.5,2.6-2.3c0,1.1-0.6,4.1,0.2,4.8
		c0.8,0.8,1.3-0.4,1.8-0.2c0.8,0.4,3-0.5,3.1,1.2c0.1,1.8-5.2,1.6-5.7,2.3c-0.5,0.7,0.1,7,1,8.1c2.8,3.4,3.1-0.6,4.6-1.5
		c2.9-1.8,1.6,2.3,0.4,4c-0.9,1.1-2.2,2.6-3.8,2.5c0,0-3.1-3.4-2.6-1.2c-2.1-3.1-0.9-6.1-0.8-9.4c0-1.7,0.2-2-0.6-3.1
		C417.9,109.5,413.3,108.9,415.5,107.6z M419.7,106.1c-0.4-0.3,0.3-1-0.8-0.7C418.7,106.4,419.3,105.7,419.7,106.1z M420.8,120.4
		c-0.4-0.4,0.4-1-0.7-0.8C419.8,120.7,420.5,120,420.8,120.4z"/>
	<path d="M437,110.5c0.2-1,0.4-1.9,0.6-2.9c-0.4,1.2-0.1,3.3,1.5,3.3c0.7,0,2.2-3.3,3.3-3.7c0.6-0.3,4.8-0.1,5.7,0.1
		c1.9,0.5,4,1.9,4.3,4.5c0.6,6.1-6.2,1.1-9.2,3.2c-4.5,3.1,2.3,2.2,3.3,2.4c-0.7,0.8-1.6,1.3-2.6,1.5c2.2,0.5,2.6,0.8,4.5,0.2
		c1.3-0.4,5.3-3.8,3.3,0.8c-2.1,4.8-9.3,2-11.6-0.4C437.5,117.1,436,114.1,437,110.5z M437.8,115.3c0.2,0.5,0.5,0.9,1.1,0.9
		c-0.8-2.2,0.8-2.3,0.8-4.6C437.7,111.5,437.4,113.7,437.8,115.3z M445.3,111c-0.2-0.9,1.3-1.1,1.9-1.1c-0.3-2.4-5.5-0.7-5.5,1.1
		C442.8,111,444,111,445.3,111z M441.8,112c2,2.2,6.1,0.6,8-0.3c-0.2-0.8-0.5-1.6-1.1-2.2C447.8,112.1,442.1,112.4,441.8,112z
		 M444.2,105.2c0,0,1.1-0.1,1,0.1C444.8,105.7,444.1,105.3,444.2,105.2z M446.7,116.4c0.2-0.2,0.5-0.7,0.8-1
		C447.6,116.4,446.8,116.4,446.7,116.4z M447.9,109.5c0.4-0.2,0.4-0.5,0-0.8C447,108.7,447.9,109.4,447.9,109.5z"/>
	<path d="M462.2,111.8c1.8-2.9,4.4,4.4,8.6,1.8c-0.3,1.4,1.1,2.3,2.2,1.2c-0.3,0.5,2.1,2.9-0.2,3.4c0.1,0-3.3-2-4-2.2
		C466.1,115,462.8,115.7,462.2,111.8z M462.9,117.5c2.3,0.1,3.8,2.3,6,2.8c0,0,2.2,0,2.3,0c0.4-0.1,2.4-0.5,2.1-0.5
		c-1.3,0.1,1.3-1.9,1-1.4C474.4,124.7,460.6,124.2,462.9,117.5z M464.1,108.3c0.8-2.6,4.2-0.6,4.1-1.9c1.1,1.6,3.3,1.9,4.8,1.2
		c0.1,2.1,1.9,4.8-1.5,4.1c-0.5-0.1-2-2.2-2.6-2.4c-1.2-0.5-3.7,0-5,0C464.4,108.5,464.5,108.1,464.1,108.3z"/>
</g>
</svg>
